<svg width="171" height="19" viewBox="0 0 171 19" fill="none" xmlns="http://www.w3.org/2000/svg">
<path d="M0 0.825024C0.215381 1.66893 0.654037 2.43927 1.2699 3.05513C1.88576 3.67099 2.65609 4.10964 3.5 4.32502H9L9.25 4.37502V18.175H12.65V4.42502L13 4.27502H18.5C19.3416 4.05482 20.1093 3.61455 20.7244 2.99945C21.3395 2.38434 21.7798 1.61658 22 0.775024L0 0.775024V0.825024ZM119.3 0.825024H115.9V18.225H131.5C132.239 17.9456 132.899 17.4898 133.422 16.8972C133.945 16.3046 134.315 15.5933 134.5 14.825H119.35V0.775024L119.3 0.825024ZM93.15 4.22502C94.95 3.72502 96.45 2.32502 96.85 0.775024L77.8 0.825024V11.125H93.35V14.725H81.15C80.2185 14.9673 79.3491 15.4046 78.5992 16.008C77.8493 16.6113 77.2361 17.367 76.8 18.225H96.75V7.72502H81.15V4.22502H93.15ZM151.25 18.225H154.6V11.225H166.9V18.225H170.25V7.72502H151.25V18.225ZM42.65 4.27502H55.65C56.5055 4.07266 57.289 3.63923 57.915 3.02203C58.541 2.40483 58.9855 1.62757 59.2 0.775024L39.15 0.775024C39.3604 1.62133 39.7974 2.39431 40.4141 3.01096C41.0307 3.6276 41.8037 4.06461 42.65 4.27502ZM42.65 11.175H55.65C56.5055 10.9727 57.289 10.5392 57.915 9.92203C58.541 9.30483 58.9855 8.52757 59.2 7.67502H39.15C39.3604 8.52133 39.7974 9.29431 40.4141 9.91096C41.0307 10.5276 41.8037 10.9646 42.65 11.175ZM42.65 18.225H55.65C56.5055 18.0227 57.289 17.5892 57.915 16.972C58.541 16.3548 58.9855 15.5776 59.2 14.725H39.15C39.3604 15.5713 39.7974 16.3443 40.4141 16.961C41.0307 17.5776 41.8037 18.0146 42.65 18.225ZM154.25 4.27502H167.25C168.096 4.06461 168.869 3.6276 169.486 3.01096C170.103 2.39431 170.54 1.62133 170.75 0.775024L150.75 0.775024C150.96 1.62133 151.397 2.39431 152.014 3.01096C152.631 3.6276 153.404 4.06461 154.25 4.27502Z" fill="black"/>
</svg>
